<svg viewBox="0 0 1200 260" xmlns="http://www.w3.org/2000/svg">
  <defs>
    <linearGradient id="g3" x1="0%" y1="0%" x2="100%" y2="100%">
      <stop offset="0%" stop-color="#0b132b"/>
      <stop offset="50%" stop-color="#1c2541"/>
      <stop offset="100%" stop-color="#3a506b"/>
    </linearGradient>
    <linearGradient id="accent3" x1="0%" y1="0%" x2="100%" y2="0%">
      <stop offset="0%" stop-color="#9d4edd"/>
      <stop offset="100%" stop-color="#c77dff"/>
    </linearGradient>
  </defs>
  <rect width="1200" height="260" fill="url(#g3)"/>

  <!-- DNA helix -->
  <g transform="translate(950,20)" opacity="0.9">
    <path d="M0,0 C60,40 -60,80 0,120 C60,160 -60,200 0,240" fill="none" stroke="#c77dff" stroke-width="4"/>
    <path d="M100,0 C40,40 160,80 100,120 C40,160 160,200 100,240" fill="none" stroke="#4fd3c4" stroke-width="4"/>
    <g stroke="#ffffff" stroke-opacity="0.4" stroke-width="2">
      <line x1="14" y1="10" x2="86" y2="10"/>
      <line x1="30" y1="35" x2="70" y2="35"/>
      <line x1="6" y1="60" x2="94" y2="60"/>
      <line x1="30" y1="85" x2="70" y2="85"/>
      <line x1="14" y1="110" x2="86" y2="110"/>
      <line x1="6" y1="135" x2="94" y2="135"/>
      <line x1="30" y1="160" x2="70" y2="160"/>
      <line x1="14" y1="185" x2="86" y2="185"/>
      <line x1="6" y1="210" x2="94" y2="210"/>
      <line x1="30" y1="235" x2="70" y2="235"/>
    </g>
  </g>

  <text x="70" y="90" font-family="Georgia, 'Times New Roman', serif" font-size="38" fill="#ffffff" font-weight="bold">Variable Selection for</text>
  <text x="70" y="132" font-family="Georgia, 'Times New Roman', serif" font-size="38" fill="#ffffff" font-weight="bold">High-Dimensional Survival Data</text>
  <rect x="70" y="155" width="120" height="6" fill="url(#accent3)"/>
</svg>
